<svg viewBox="0 0 542 180" xmlns="http://www.w3.org/2000/svg">
<path d="M10,10 L532,10 L532,23 L490,23 L490,24 L489,24 L489,25 L488,25 L488,81 L489,81 L489,82 L490,82 L490,83 L532,83 L532,100 L490,100 L490,101 L489,101 L489,102 L488,102 L488,158 L489,158 L489,159 L490,159 L490,160 L532,160 L532,170 L10,170 L10,160 L47,160 L47,159 L48,159 L48,158 L49,158 L49,102 L48,102 L48,101 L47,101 L47,100 L10,100 L10,83 L47,83 L47,82 L48,82 L48,81 L49,81 L49,25 L48,25 L48,24 L47,24 L47,23 L10,23 L10,10 z" fill="#f6f8f8" stroke="none"/>
<path d="M10,23 L44,23 L44,24 L47,24 L47,25 L48,25 L48,28 L49,28 L49,79 L47,79 L47,80 L46,80 L46,81 L10,81 L10,70 L11,70 L11,71 L14,71 L14,72 L24,72 L24,71 L27,71 L27,70 L29,70 L29,69 L30,69 L30,68 L32,68 L32,67 L33,67 L33,66 L34,66 L34,64 L35,64 L35,63 L36,63 L36,61 L37,61 L37,58 L38,58 L38,49 L37,49 L37,46 L36,46 L36,44 L35,44 L35,42 L34,42 L34,41 L33,41 L33,40 L32,40 L32,39 L31,39 L31,38 L29,38 L29,37 L28,37 L28,36 L26,36 L26,35 L12,35 L12,36 L10,36 L10,23 z" fill="#e94d8a" stroke="none"/>
<path d="M74,24 L130,24 L130,25 L131,25 L131,81 L130,81 L130,82 L74,82 L74,81 L73,81 L73,25 L74,25 L74,24 z" fill="#03abea" stroke="none"/>
<path d="M157,24 L213,24 L213,25 L214,25 L214,79 L213,79 L213,82 L157,82 L157,81 L156,81 L156,25 L157,25 L157,24 z" fill="#3a5897" stroke="none"/>
<path d="M242,24 L296,24 L296,25 L297,25 L297,26 L298,26 L298,80 L297,80 L297,81 L296,81 L296,82 L242,82 L242,81 L240,81 L240,26 L241,26 L241,25 L242,25 L242,24 z" fill="#234218" stroke="none"/>
<path d="M324,24 L380,24 L380,26 L381,26 L381,79 L380,79 L380,81 L379,81 L379,82 L325,82 L325,81 L324,81 L324,79 L323,79 L323,25 L324,25 L324,24 z" fill="#1b6bb3" stroke="none"/>
<path d="M407,24 L463,24 L463,25 L464,25 L464,81 L463,81 L463,82 L407,82 L407,81 L406,81 L406,25 L407,25 L407,24 z" fill="#f78a02" stroke="none"/>
<path d="M491,24 L532,24 L532,40 L498,40 L498,67 L532,67 L532,82 L491,82 L491,81 L490,81 L490,80 L489,80 L489,25 L491,25 L491,24 z" fill="#b01000" stroke="none"/>
<path d="M92,36 L97,36 L97,37 L106,37 L106,38 L108,38 L108,39 L110,39 L110,40 L112,40 L112,41 L113,41 L113,42 L114,42 L114,43 L115,43 L115,44 L116,44 L116,46 L117,46 L117,49 L118,49 L118,59 L119,59 L119,64 L118,64 L118,67 L117,67 L117,68 L116,68 L116,69 L114,69 L114,70 L112,70 L112,71 L108,71 L108,70 L99,70 L99,69 L96,69 L96,68 L94,68 L94,67 L92,67 L92,66 L91,66 L91,65 L90,65 L90,64 L89,64 L89,62 L88,62 L88,60 L87,60 L87,58 L86,58 L86,48 L85,48 L85,42 L86,42 L86,40 L87,40 L87,39 L88,39 L88,38 L89,38 L89,37 L92,37 L92,36 z" fill="#fdfefe" stroke="none"/>
<path d="M10,100 L44,100 L44,101 L47,101 L47,102 L48,102 L48,157 L47,157 L47,158 L46,158 L46,159 L44,159 L44,160 L10,160 L10,149 L11,149 L11,146 L12,146 L12,141 L13,141 L13,137 L14,137 L14,127 L15,127 L15,126 L16,126 L16,125 L19,125 L19,131 L18,131 L18,134 L17,134 L17,136 L18,136 L18,138 L19,138 L19,139 L23,139 L23,138 L25,138 L25,137 L26,137 L26,135 L27,135 L27,133 L28,133 L28,125 L27,125 L27,123 L26,123 L26,122 L25,122 L25,121 L24,121 L24,120 L15,120 L15,121 L13,121 L13,122 L12,122 L12,123 L11,123 L11,124 L10,124 L10,120 L12,120 L12,119 L13,119 L13,118 L17,118 L17,117 L22,117 L22,118 L25,118 L25,119 L27,119 L27,120 L28,120 L28,121 L29,121 L29,122 L30,122 L30,123 L31,123 L31,126 L32,126 L32,132 L31,132 L31,135 L30,135 L30,137 L29,137 L29,138 L28,138 L28,139 L27,139 L27,140 L25,140 L25,141 L19,141 L19,140 L17,140 L17,139 L16,139 L16,142 L15,142 L15,146 L14,146 L14,148 L13,148 L13,150 L26,150 L26,149 L28,149 L28,148 L30,148 L30,147 L32,147 L32,146 L33,146 L33,145 L34,145 L34,144 L35,144 L35,142 L36,142 L36,141 L37,141 L37,139 L38,139 L38,137 L39,137 L39,123 L38,123 L38,121 L37,121 L37,119 L36,119 L36,117 L35,117 L35,116 L34,116 L34,115 L33,115 L33,114 L32,114 L32,113 L30,113 L30,112 L28,112 L28,111 L26,111 L26,110 L12,110 L12,111 L10,111 L10,100 z" fill="#ca2027" stroke="none"/>
<path d="M244,100 L294,100 L294,101 L297,101 L297,102 L298,102 L298,105 L299,105 L299,156 L297,156 L297,157 L296,157 L296,158 L242,158 L242,157 L241,157 L241,156 L239,156 L239,105 L240,105 L240,102 L241,102 L241,101 L244,101 L244,100 z" fill="#45ccf5" stroke="none"/>
<path d="M75,101 L129,101 L129,102 L130,102 L130,103 L131,103 L131,158 L129,158 L129,159 L75,159 L75,158 L73,158 L73,103 L74,103 L74,102 L75,102 L75,101 z" fill="#cf3e2c" stroke="none"/>
<path d="M157,101 L213,101 L213,103 L214,103 L214,157 L213,157 L213,158 L212,158 L212,159 L158,159 L158,158 L157,158 L157,157 L156,157 L156,102 L157,102 L157,101 z" fill="#e44c26" stroke="none"/>
<path d="M325,101 L379,101 L379,102 L380,102 L380,103 L381,103 L381,157 L380,157 L380,158 L379,158 L379,159 L325,159 L325,158 L324,158 L324,157 L323,157 L323,102 L325,102 L325,101 z" fill="#cf0901" stroke="none"/>
<path d="M408,101 L462,101 L462,102 L463,102 L463,103 L464,103 L464,105 L465,105 L465,155 L464,155 L464,156 L463,156 L463,158 L462,158 L462,159 L408,159 L408,158 L407,158 L407,156 L406,156 L406,155 L405,155 L405,105 L406,105 L406,102 L408,102 L408,101 z" fill="#0374b4" stroke="none"/>
<path d="M490,101 L532,101 L532,117 L531,117 L531,116 L530,116 L530,115 L529,115 L529,114 L528,114 L528,113 L527,113 L527,112 L506,112 L506,116 L505,116 L505,120 L504,120 L504,124 L503,124 L503,129 L502,129 L502,133 L501,133 L501,137 L500,137 L500,141 L499,141 L499,143 L505,143 L505,145 L504,145 L504,149 L518,149 L518,145 L519,145 L519,141 L525,141 L525,140 L528,140 L528,139 L530,139 L530,138 L532,138 L532,159 L491,159 L491,158 L489,158 L489,102 L490,102 L490,101 z" fill="#1a3564" stroke="none"/>
<path d="M418,113 L452,113 L452,114 L453,114 L453,147 L452,147 L452,148 L418,148 L418,147 L417,147 L417,114 L418,114 L418,113 z" fill="#fdfefe" stroke="none"/>
<path d="M274,114 L278,114 L278,115 L281,115 L281,116 L282,116 L282,117 L283,117 L283,116 L286,116 L286,117 L285,117 L285,118 L284,118 L284,119 L286,119 L286,120 L285,120 L285,121 L284,121 L284,127 L283,127 L283,130 L282,130 L282,133 L281,133 L281,135 L280,135 L280,136 L279,136 L279,137 L278,137 L278,138 L277,138 L277,139 L276,139 L276,140 L275,140 L275,141 L274,141 L274,142 L272,142 L272,143 L270,143 L270,144 L265,144 L265,145 L259,145 L259,144 L255,144 L255,143 L252,143 L252,142 L255,142 L255,141 L258,141 L258,140 L260,140 L260,139 L261,139 L261,138 L259,138 L259,137 L257,137 L257,136 L256,136 L256,135 L255,135 L255,133 L257,133 L257,132 L255,132 L255,131 L254,131 L254,130 L253,130 L253,128 L252,128 L252,126 L255,126 L255,125 L254,125 L254,124 L253,124 L253,123 L252,123 L252,116 L253,116 L253,117 L254,117 L254,118 L255,118 L255,119 L257,119 L257,120 L258,120 L258,121 L260,121 L260,122 L262,122 L262,123 L266,123 L266,124 L269,124 L269,118 L270,118 L270,117 L271,117 L271,116 L272,116 L272,115 L274,115 L274,114 z" fill="#fefefe" stroke="none"/>
<path d="M160,23 L210,23 L210,24 L160,24 L160,23 z" fill="#4c67a2" stroke="none"/>
<path d="M244,23 L294,23 L294,24 L244,24 L244,23 z" fill="#37532d" stroke="none"/>
<path d="M327,23 L377,23 L377,24 L327,24 L327,23 z" fill="#2f79b9" stroke="none"/>
<path d="M239,28 L240,28 L240,78 L239,78 L239,28 z" fill="#37522d" stroke="none"/>
<path d="M298,28 L299,28 L299,78 L298,78 L298,28 z" fill="#37522d" stroke="none"/>
<path d="M322,28 L323,28 L323,79 L322,79 L322,28 z" fill="#2f79b8" stroke="none"/>
<path d="M381,28 L382,28 L382,79 L381,79 L381,28 z" fill="#2f79b8" stroke="none"/>
<path d="M488,28 L489,28 L489,78 L488,78 L488,28 z" fill="#b52616" stroke="none"/>
<path d="M16,35 L23,35 L23,36 L25,36 L25,37 L28,37 L28,38 L29,38 L29,39 L31,39 L31,40 L32,40 L32,41 L33,41 L33,43 L34,43 L34,44 L35,44 L35,46 L36,46 L36,48 L37,48 L37,58 L36,58 L36,61 L35,61 L35,63 L34,63 L34,64 L33,64 L33,65 L32,65 L32,66 L31,66 L31,67 L30,67 L30,68 L29,68 L29,69 L27,69 L27,70 L25,70 L25,71 L13,71 L13,70 L11,70 L11,69 L10,69 L10,67 L11,67 L11,68 L13,68 L13,69 L16,69 L16,70 L22,70 L22,69 L25,69 L25,64 L24,64 L24,59 L23,59 L23,57 L22,57 L22,56 L19,56 L19,57 L17,57 L17,58 L16,58 L16,59 L14,59 L14,60 L13,60 L13,61 L12,61 L12,62 L11,62 L11,63 L10,63 L10,60 L11,60 L11,59 L12,59 L12,58 L14,58 L14,57 L15,57 L15,56 L17,56 L17,55 L19,55 L19,54 L21,54 L21,52 L20,52 L20,51 L15,51 L15,52 L10,52 L10,50 L13,50 L13,49 L18,49 L18,46 L17,46 L17,45 L16,45 L16,43 L15,43 L15,42 L14,42 L14,40 L13,40 L13,39 L11,39 L11,40 L10,40 L10,37 L12,37 L12,36 L16,36 L16,35 z" fill="#fefbfb" stroke="none"/>
<path d="M416,35 L417,35 L417,41 L416,41 L416,35 z" fill="#fcdaaf" stroke="none"/>
<path d="M417,35 L421,35 L421,36 L426,36 L426,37 L429,37 L429,38 L432,38 L432,39 L434,39 L434,40 L435,40 L435,41 L437,41 L437,42 L438,42 L438,43 L440,43 L440,44 L441,44 L441,45 L442,45 L442,46 L443,46 L443,47 L444,47 L444,48 L445,48 L445,50 L446,50 L446,51 L447,51 L447,53 L448,53 L448,54 L449,54 L449,56 L450,56 L450,59 L451,59 L451,61 L452,61 L452,65 L453,65 L453,71 L447,71 L447,66 L446,66 L446,63 L445,63 L445,60 L444,60 L444,58 L443,58 L443,56 L442,56 L442,55 L441,55 L441,53 L440,53 L440,52 L439,52 L439,51 L438,51 L438,50 L437,50 L437,49 L436,49 L436,48 L435,48 L435,47 L433,47 L433,46 L432,46 L432,45 L430,45 L430,44 L427,44 L427,43 L425,43 L425,42 L417,42 L417,35 z" fill="#fefefe" stroke="none"/>
<path d="M186,36 L192,36 L192,37 L186,37 L186,36 z" fill="#aebacc" stroke="none"/>
<path d="M268,36 L270,36 L270,39 L271,39 L271,41 L272,41 L272,43 L273,43 L273,46 L274,46 L274,48 L275,48 L275,51 L276,51 L276,53 L277,53 L277,55 L278,55 L278,58 L279,58 L279,60 L280,60 L280,62 L281,62 L281,64 L282,64 L282,67 L283,67 L283,69 L284,69 L284,71 L271,71 L271,66 L273,66 L273,65 L275,65 L275,64 L277,64 L277,61 L276,61 L276,62 L274,62 L274,63 L272,63 L272,64 L271,64 L271,62 L273,62 L273,61 L274,61 L274,60 L275,60 L275,59 L272,59 L272,60 L271,60 L271,57 L267,57 L267,62 L266,62 L266,61 L265,61 L265,60 L264,60 L264,61 L263,61 L263,62 L264,62 L264,63 L266,63 L266,64 L267,64 L267,71 L254,71 L254,69 L255,69 L255,67 L256,67 L256,64 L257,64 L257,62 L258,62 L258,60 L259,60 L259,58 L260,58 L260,55 L261,55 L261,53 L262,53 L262,51 L263,51 L263,48 L264,48 L264,46 L265,46 L265,44 L266,44 L266,41 L267,41 L267,39 L268,39 L268,36 z" fill="#fefefe" stroke="none"/>
<path d="M371,36 L373,36 L373,49 L371,49 L371,39 L370,39 L370,38 L372,38 L372,37 L371,37 L371,36 z" fill="#c4daec" stroke="none"/>
<path d="M184,37 L192,37 L192,42 L187,42 L187,48 L192,48 L192,53 L187,53 L187,70 L181,70 L181,53 L178,53 L178,48 L181,48 L181,41 L182,41 L182,39 L183,39 L183,38 L184,38 L184,37 z" fill="#fefefe" stroke="none"/>
<path d="M192,37 L193,37 L193,42 L192,42 L192,37 z" fill="#d2dae3" stroke="none"/>
<path d="M16,38 L23,38 L23,39 L25,39 L25,40 L27,40 L27,41 L29,41 L29,42 L28,42 L28,43 L27,43 L27,44 L26,44 L26,45 L24,45 L24,46 L22,46 L22,47 L21,47 L21,45 L20,45 L20,44 L19,44 L19,42 L18,42 L18,40 L17,40 L17,39 L16,39 L16,38 z" fill="#ea4d8a" stroke="none"/>
<path d="M10,40 L13,40 L13,42 L14,42 L14,43 L15,43 L15,45 L16,45 L16,46 L17,46 L17,48 L14,48 L14,49 L10,49 L10,40 z" fill="#ea4d8a" stroke="none"/>
<path d="M370,40 L371,40 L371,49 L369,49 L369,50 L368,50 L368,51 L367,51 L367,52 L365,52 L365,53 L364,53 L364,54 L363,54 L363,55 L362,55 L362,56 L360,56 L360,57 L359,57 L359,58 L358,58 L358,59 L356,59 L356,60 L355,60 L355,61 L354,61 L354,62 L353,62 L353,63 L351,63 L351,64 L350,64 L350,63 L349,63 L349,62 L348,62 L348,61 L346,61 L346,60 L345,60 L345,59 L344,59 L344,58 L338,58 L338,57 L336,57 L336,56 L335,56 L335,55 L334,55 L334,53 L333,53 L333,48 L334,48 L334,46 L335,46 L335,45 L337,45 L337,44 L344,44 L344,45 L346,45 L346,47 L347,47 L347,49 L348,49 L348,53 L347,53 L347,55 L348,55 L348,56 L349,56 L349,58 L350,58 L350,59 L352,59 L352,58 L353,58 L353,57 L354,57 L354,56 L355,56 L355,55 L356,55 L356,54 L357,54 L357,53 L358,53 L358,52 L359,52 L359,51 L360,51 L360,50 L361,50 L361,49 L362,49 L362,48 L363,48 L363,47 L364,47 L364,46 L365,46 L365,45 L366,45 L366,44 L367,44 L367,43 L368,43 L368,42 L369,42 L369,41 L370,41 L370,40 z" fill="#1c6cb4" stroke="none"/>
<path d="M498,40 L532,40 L532,46 L530,46 L530,48 L528,48 L528,49 L527,49 L527,50 L526,50 L526,51 L525,51 L525,52 L524,52 L524,53 L522,53 L522,55 L521,55 L521,56 L520,56 L520,57 L519,57 L519,58 L517,58 L517,57 L516,57 L516,56 L515,56 L515,55 L514,55 L514,53 L512,53 L512,52 L511,52 L511,51 L510,51 L510,50 L509,50 L509,49 L507,49 L507,47 L506,47 L506,46 L504,46 L504,62 L505,62 L505,63 L504,63 L504,66 L532,66 L532,67 L498,67 L498,40 z" fill="#fefcfc" stroke="none"/>
<path d="M99,41 L105,41 L105,42 L99,42 L99,41 z" fill="#d0f0fb" stroke="none"/>
<path d="M338,41 L343,41 L343,42 L338,42 L338,41 z" fill="#629ecb" stroke="none"/>
<path d="M99,42 L105,42 L105,43 L108,43 L108,44 L109,44 L109,45 L110,45 L110,47 L111,47 L111,48 L110,48 L110,49 L107,49 L107,48 L106,48 L106,46 L104,46 L104,45 L99,45 L99,46 L98,46 L98,47 L97,47 L97,49 L98,49 L98,50 L101,50 L101,51 L104,51 L104,52 L108,52 L108,53 L110,53 L110,55 L111,55 L111,61 L110,61 L110,62 L109,62 L109,63 L108,63 L108,64 L104,64 L104,65 L99,65 L99,64 L97,64 L97,63 L95,63 L95,62 L94,62 L94,61 L93,61 L93,57 L96,57 L96,58 L97,58 L97,60 L98,60 L98,61 L100,61 L100,62 L104,62 L104,61 L106,61 L106,60 L107,60 L107,57 L106,57 L106,56 L105,56 L105,55 L101,55 L101,54 L98,54 L98,53 L96,53 L96,52 L94,52 L94,50 L93,50 L93,46 L94,46 L94,45 L95,45 L95,44 L96,44 L96,43 L99,43 L99,42 z" fill="#05aceb" stroke="none"/>
<path d="M338,42 L343,42 L343,43 L338,43 L338,42 z" fill="#fafcfd" stroke="none"/>
<path d="M511,42 L525,42 L525,44 L523,44 L523,45 L522,45 L522,46 L521,46 L521,47 L520,47 L520,48 L519,48 L519,49 L517,49 L517,48 L516,48 L516,47 L515,47 L515,46 L514,46 L514,45 L513,45 L513,44 L511,44 L511,42 z" fill="#b31909" stroke="none"/>
<path d="M31,44 L32,44 L32,46 L33,46 L33,48 L34,48 L34,53 L32,53 L32,52 L24,52 L24,51 L23,51 L23,50 L24,50 L24,49 L26,49 L26,48 L27,48 L27,47 L29,47 L29,46 L30,46 L30,45 L31,45 L31,44 z" fill="#ea4d8a" stroke="none"/>
<path d="M351,46 L352,46 L352,47 L353,47 L353,48 L354,48 L354,49 L355,49 L355,50 L356,50 L356,51 L358,51 L358,52 L357,52 L357,53 L356,53 L356,54 L355,54 L355,55 L354,55 L354,56 L353,56 L353,57 L352,57 L352,58 L350,58 L350,56 L349,56 L349,54 L348,54 L348,53 L349,53 L349,48 L350,48 L350,47 L351,47 L351,46 z" fill="#fdfefe" stroke="none"/>
<path d="M416,48 L417,48 L417,54 L416,54 L416,48 z" fill="#fcdcb3" stroke="none"/>
<path d="M417,48 L422,48 L422,49 L425,49 L425,50 L427,50 L427,51 L429,51 L429,52 L431,52 L431,53 L432,53 L432,54 L433,54 L433,55 L434,55 L434,56 L435,56 L435,57 L436,57 L436,59 L437,59 L437,60 L438,60 L438,63 L439,63 L439,65 L440,65 L440,71 L434,71 L434,67 L433,67 L433,64 L432,64 L432,62 L431,62 L431,61 L430,61 L430,60 L429,60 L429,59 L428,59 L428,58 L427,58 L427,57 L425,57 L425,56 L423,56 L423,55 L420,55 L420,54 L417,54 L417,48 z" fill="#fefefe" stroke="none"/>
<path d="M505,48 L506,48 L506,49 L507,49 L507,50 L508,50 L508,51 L509,51 L509,52 L510,52 L510,53 L512,53 L512,54 L513,54 L513,55 L512,55 L512,56 L511,56 L511,57 L509,57 L509,58 L508,58 L508,59 L507,59 L507,60 L506,60 L506,61 L505,61 L505,48 z" fill="#b11201" stroke="none"/>
<path d="M530,48 L531,48 L531,61 L530,61 L530,60 L529,60 L529,59 L528,59 L528,58 L527,58 L527,57 L525,57 L525,56 L524,56 L524,55 L523,55 L523,54 L524,54 L524,53 L526,53 L526,52 L527,52 L527,51 L528,51 L528,50 L529,50 L529,49 L530,49 L530,48 z" fill="#b21101" stroke="none"/>
<path d="M331,49 L333,49 L333,52 L332,52 L332,53 L331,53 L331,49 z" fill="#bad4e8" stroke="none"/>
<path d="M504,49 L505,49 L505,60 L504,60 L504,49 z" fill="#d87269" stroke="none"/>
<path d="M531,49 L532,49 L532,61 L531,61 L531,49 z" fill="#d67067" stroke="none"/>
<path d="M18,51 L19,51 L19,52 L20,52 L20,53 L19,53 L19,54 L17,54 L17,55 L15,55 L15,56 L14,56 L14,57 L12,57 L12,58 L11,58 L11,59 L10,59 L10,53 L11,53 L11,52 L18,52 L18,51 z" fill="#ea4f8c" stroke="none"/>
<path d="M85,51 L86,51 L86,56 L85,56 L85,51 z" fill="#7cd6f5" stroke="none"/>
<path d="M118,51 L119,51 L119,56 L118,56 L118,51 z" fill="#c5edfb" stroke="none"/>
<path d="M180,54 L181,54 L181,70 L180,70 L180,54 z" fill="#a3b0c6" stroke="none"/>
<path d="M187,54 L188,54 L188,70 L187,70 L187,54 z" fill="#a3b0c6" stroke="none"/>
<path d="M25,55 L32,55 L32,56 L26,56 L26,57 L25,57 L25,55 z" fill="#ec6b9d" stroke="none"/>
<path d="M26,56 L34,56 L34,59 L33,59 L33,61 L32,61 L32,62 L31,62 L31,64 L30,64 L30,65 L28,65 L28,64 L27,64 L27,59 L26,59 L26,56 z" fill="#ea4e8b" stroke="none"/>
<path d="M362,56 L363,56 L363,57 L364,57 L364,59 L362,59 L362,60 L361,60 L361,61 L360,61 L360,62 L359,62 L359,63 L358,63 L358,64 L357,64 L357,65 L356,65 L356,66 L355,66 L355,67 L354,67 L354,68 L353,68 L353,69 L352,69 L352,70 L351,70 L351,69 L350,69 L350,68 L349,68 L349,67 L348,67 L348,66 L347,66 L347,65 L346,65 L346,64 L345,64 L345,63 L344,63 L344,62 L343,62 L343,61 L342,61 L342,60 L340,60 L340,59 L337,59 L337,58 L343,58 L343,59 L344,59 L344,60 L345,60 L345,61 L346,61 L346,62 L347,62 L347,63 L348,63 L348,64 L350,64 L350,65 L352,65 L352,64 L353,64 L353,63 L354,63 L354,62 L355,62 L355,61 L357,61 L357,60 L358,60 L358,59 L359,59 L359,58 L361,58 L361,57 L362,57 L362,56 z" fill="#fbfdfd" stroke="none"/>
<path d="M19,57 L22,57 L22,59 L23,59 L23,63 L24,63 L24,66 L25,66 L25,68 L23,68 L23,69 L15,69 L15,68 L13,68 L13,67 L11,67 L11,66 L10,66 L10,64 L11,64 L11,63 L12,63 L12,62 L13,62 L13,61 L14,61 L14,60 L16,60 L16,59 L17,59 L17,58 L19,58 L19,57 z" fill="#ea4e8b" stroke="none"/>
<path d="M267,57 L268,57 L268,62 L267,62 L267,57 z" fill="#748871" stroke="none"/>
<path d="M513,57 L516,57 L516,58 L517,58 L517,59 L519,59 L519,58 L520,58 L520,57 L523,57 L523,58 L524,58 L524,59 L525,59 L525,60 L527,60 L527,61 L528,61 L528,62 L529,62 L529,63 L531,63 L531,65 L505,65 L505,63 L506,63 L506,62 L508,62 L508,61 L510,61 L510,60 L511,60 L511,59 L512,59 L512,58 L513,58 L513,57 z" fill="#b11100" stroke="none"/>
<path d="M419,63 L424,63 L424,64 L425,64 L425,65 L426,65 L426,69 L425,69 L425,70 L424,70 L424,71 L419,71 L419,70 L418,70 L418,69 L417,69 L417,65 L418,65 L418,64 L419,64 L419,63 z" fill="#fefefe" stroke="none"/>
<path d="M267,64 L268,64 L268,71 L267,71 L267,64 z" fill="#748871" stroke="none"/>
<path d="M505,65 L531,65 L531,66 L505,66 L505,65 z" fill="#ca5f53" stroke="none"/>
<path d="M270,66 L271,66 L271,71 L270,71 L270,66 z" fill="#6e8268" stroke="none"/>
<path d="M181,70 L187,70 L187,71 L181,71 L181,70 z" fill="#b1bcce" stroke="none"/>
<path d="M16,71 L21,71 L21,72 L16,72 L16,71 z" fill="#fadee3" stroke="none"/>
<path d="M434,71 L440,71 L440,72 L434,72 L434,71 z" fill="#fcefdf" stroke="none"/>
<path d="M447,71 L453,71 L453,72 L447,72 L447,71 z" fill="#fcefdf" stroke="none"/>
<path d="M434,72 L441,72 L441,73 L434,73 L434,72 z" fill="#fbbd6f" stroke="none"/>
<path d="M447,72 L453,72 L453,73 L447,73 L447,72 z" fill="#fbbd6f" stroke="none"/>
<path d="M47,79 L48,79 L48,81 L47,81 L47,82 L44,82 L44,83 L10,83 L10,81 L46,81 L46,80 L47,80 L47,79 z" fill="#c9497a" stroke="none"/>
<path d="M160,82 L210,82 L210,83 L160,83 L160,82 z" fill="#455d8b" stroke="none"/>
<path d="M244,82 L294,82 L294,83 L244,83 L244,82 z" fill="#324a29" stroke="none"/>
<path d="M327,82 L377,82 L377,83 L327,83 L327,82 z" fill="#2b6aa2" stroke="none"/>
<path d="M493,82 L532,82 L532,83 L493,83 L493,82 z" fill="#9f2316" stroke="none"/>
<path d="M77,100 L127,100 L127,101 L77,101 L77,100 z" fill="#d34f3e" stroke="none"/>
<path d="M160,100 L210,100 L210,101 L160,101 L160,100 z" fill="#e45d39" stroke="none"/>
<path d="M327,100 L377,100 L377,101 L327,101 L327,100 z" fill="#d31f17" stroke="none"/>
<path d="M410,100 L460,100 L460,101 L410,101 L410,100 z" fill="#1881bc" stroke="none"/>
<path d="M72,105 L73,105 L73,155 L72,155 L72,105 z" fill="#d34f3e" stroke="none"/>
<path d="M131,105 L132,105 L132,155 L131,155 L131,105 z" fill="#d34f3e" stroke="none"/>
<path d="M155,105 L156,105 L156,155 L155,155 L155,105 z" fill="#e35c39" stroke="none"/>
<path d="M214,105 L215,105 L215,155 L214,155 L214,105 z" fill="#e35c39" stroke="none"/>
<path d="M322,105 L323,105 L323,155 L322,155 L322,105 z" fill="#d21f17" stroke="none"/>
<path d="M381,105 L382,105 L382,155 L381,155 L381,105 z" fill="#d21f17" stroke="none"/>
<path d="M488,105 L489,105 L489,155 L488,155 L488,105 z" fill="#2e4771" stroke="none"/>
<path d="M16,110 L22,110 L22,111 L26,111 L26,112 L28,112 L28,113 L30,113 L30,114 L31,114 L31,115 L33,115 L33,116 L34,116 L34,118 L35,118 L35,119 L36,119 L36,121 L37,121 L37,123 L38,123 L38,127 L39,127 L39,133 L38,133 L38,137 L37,137 L37,139 L36,139 L36,141 L35,141 L35,142 L34,142 L34,144 L33,144 L33,145 L31,145 L31,146 L30,146 L30,147 L28,147 L28,148 L26,148 L26,149 L22,149 L22,150 L16,150 L16,149 L14,149 L14,148 L15,148 L15,145 L16,145 L16,141 L19,141 L19,142 L25,142 L25,141 L27,141 L27,140 L28,140 L28,139 L29,139 L29,138 L30,138 L30,137 L31,137 L31,135 L32,135 L32,131 L33,131 L33,126 L32,126 L32,123 L31,123 L31,122 L30,122 L30,121 L29,121 L29,120 L28,120 L28,119 L27,119 L27,118 L25,118 L25,117 L21,117 L21,116 L19,116 L19,117 L14,117 L14,118 L12,118 L12,119 L10,119 L10,112 L12,112 L12,111 L16,111 L16,110 z" fill="#fefefe" stroke="none"/>
<path d="M175,112 L176,112 L176,114 L178,114 L178,112 L179,112 L179,116 L178,116 L178,115 L176,115 L176,116 L175,116 L175,112 z" fill="#fefdfd" stroke="none"/>
<path d="M180,112 L184,112 L184,113 L183,113 L183,116 L182,116 L182,114 L181,114 L181,113 L180,113 L180,112 z" fill="#fcf5f5" stroke="none"/>
<path d="M185,112 L186,112 L186,115 L187,115 L187,116 L185,116 L185,112 z" fill="#f6d3d0" stroke="none"/>
<path d="M186,112 L187,112 L187,114 L189,114 L189,112 L190,112 L190,115 L186,115 L186,112 z" fill="#fdfbfa" stroke="none"/>
<path d="M191,112 L192,112 L192,117 L191,117 L191,112 z" fill="#eb866d" stroke="none"/>
<path d="M419,112 L451,112 L451,113 L419,113 L419,112 z" fill="#d0e4f1" stroke="none"/>
<path d="M507,112 L523,112 L523,113 L526,113 L526,114 L528,114 L528,115 L529,115 L529,116 L530,116 L530,118 L531,118 L531,120 L532,120 L532,122 L531,122 L531,125 L530,125 L530,128 L529,128 L529,129 L528,129 L528,130 L527,130 L527,131 L526,131 L526,132 L524,132 L524,133 L522,133 L522,134 L514,134 L514,137 L513,137 L513,142 L508,142 L508,144 L507,144 L507,147 L515,147 L515,146 L516,146 L516,142 L517,142 L517,138 L526,138 L526,137 L528,137 L528,136 L530,136 L530,135 L531,135 L531,134 L532,134 L532,136 L531,136 L531,137 L530,137 L530,138 L528,138 L528,139 L526,139 L526,140 L519,140 L519,141 L518,141 L518,145 L517,145 L517,148 L505,148 L505,146 L506,146 L506,143 L505,143 L505,142 L501,142 L501,138 L502,138 L502,134 L503,134 L503,129 L504,129 L504,125 L505,125 L505,120 L506,120 L506,115 L507,115 L507,112 z" fill="#fbfcfc" stroke="none"/>
<path d="M95,113 L106,113 L106,115 L105,115 L105,114 L95,114 L95,113 z" fill="#f0bfbb" stroke="none"/>
<path d="M93,114 L105,114 L105,115 L102,115 L102,117 L103,117 L103,118 L104,118 L104,125 L103,125 L103,126 L102,126 L102,127 L101,127 L101,119 L100,119 L100,117 L99,117 L99,116 L97,116 L97,115 L93,115 L93,114 z" fill="#fefcfc" stroke="none"/>
<path d="M116,114 L118,114 L118,119 L116,119 L116,114 z" fill="#f3cdca" stroke="none"/>
<path d="M416,114 L417,114 L417,147 L416,147 L416,114 z" fill="#4e9cca" stroke="none"/>
<path d="M453,114 L454,114 L454,147 L453,147 L453,114 z" fill="#4e9cca" stroke="none"/>
<path d="M509,114 L524,114 L524,115 L509,115 L509,114 z" fill="#95a4bf" stroke="none"/>
<path d="M193,115 L195,115 L195,117 L192,117 L192,116 L193,116 L193,115 z" fill="#f6dedb" stroke="none"/>
<path d="M509,115 L525,115 L525,116 L526,116 L526,117 L527,117 L527,118 L528,118 L528,120 L529,120 L529,123 L528,123 L528,126 L527,126 L527,128 L525,128 L525,129 L524,129 L524,130 L522,130 L522,131 L512,131 L512,135 L511,135 L511,139 L510,139 L510,140 L504,140 L504,136 L505,136 L505,132 L506,132 L506,127 L507,127 L507,123 L508,123 L508,119 L509,119 L509,115 z" fill="#1a3665" stroke="none"/>
<path d="M90,116 L91,116 L91,118 L90,118 L90,124 L91,124 L91,126 L92,126 L92,127 L93,127 L93,128 L95,128 L95,129 L91,129 L91,128 L90,128 L90,127 L89,127 L89,126 L88,126 L88,124 L87,124 L87,119 L88,119 L88,118 L89,118 L89,117 L90,117 L90,116 z" fill="#fefdfd" stroke="none"/>
<path d="M92,116 L97,116 L97,117 L99,117 L99,119 L100,119 L100,122 L101,122 L101,125 L100,125 L100,127 L99,127 L99,128 L95,128 L95,127 L93,127 L93,125 L92,125 L92,123 L91,123 L91,118 L92,118 L92,116 z" fill="#d0402e" stroke="none"/>
<path d="M111,119 L116,119 L116,120 L111,120 L111,119 z" fill="#eca69c" stroke="none"/>
<path d="M116,119 L118,119 L118,120 L124,120 L124,121 L111,121 L111,120 L116,120 L116,119 z" fill="#fbebed" stroke="none"/>
<path d="M118,119 L124,119 L124,120 L118,120 L118,119 z" fill="#eba198" stroke="none"/>
<path d="M173,119 L197,119 L197,120 L173,120 L173,119 z" fill="#f4ccc6" stroke="none"/>
<path d="M423,119 L427,119 L427,120 L428,120 L428,122 L427,122 L427,123 L423,123 L423,119 z" fill="#0274b5" stroke="none"/>
<path d="M18,120 L21,120 L21,121 L24,121 L24,122 L25,122 L25,123 L26,123 L26,124 L27,124 L27,133 L26,133 L26,135 L25,135 L25,137 L24,137 L24,138 L19,138 L19,137 L18,137 L18,134 L19,134 L19,130 L20,130 L20,126 L19,126 L19,125 L18,125 L18,124 L16,124 L16,125 L15,125 L15,126 L14,126 L14,127 L13,127 L13,132 L14,132 L14,134 L13,134 L13,138 L12,138 L12,142 L11,142 L11,148 L10,148 L10,137 L11,137 L11,133 L10,133 L10,126 L11,126 L11,124 L12,124 L12,123 L13,123 L13,122 L14,122 L14,121 L18,121 L18,120 z" fill="#fefefe" stroke="none"/>
<path d="M173,120 L197,120 L197,132 L196,132 L196,145 L195,145 L195,146 L191,146 L191,147 L188,147 L188,148 L182,148 L182,147 L179,147 L179,146 L175,146 L175,142 L174,142 L174,132 L173,132 L173,120 z" fill="#fefcfc" stroke="none"/>
<path d="M341,120 L348,120 L348,121 L351,121 L351,122 L352,122 L352,123 L353,123 L353,125 L354,125 L354,126 L355,126 L355,129 L356,129 L356,131 L357,131 L357,133 L358,133 L358,136 L359,136 L359,137 L360,137 L360,138 L366,138 L366,137 L367,137 L367,133 L366,133 L366,132 L365,132 L365,131 L362,131 L362,130 L360,130 L360,129 L358,129 L358,127 L357,127 L357,123 L358,123 L358,122 L359,122 L359,121 L361,121 L361,120 L365,120 L365,121 L367,121 L367,122 L368,122 L368,123 L367,123 L367,124 L366,124 L366,123 L364,123 L364,122 L361,122 L361,123 L360,123 L360,127 L361,127 L361,128 L364,128 L364,129 L366,129 L366,130 L368,130 L368,131 L369,131 L369,132 L370,132 L370,137 L369,137 L369,139 L367,139 L367,140 L365,140 L365,141 L361,141 L361,140 L359,140 L359,139 L358,139 L358,138 L357,138 L357,137 L356,137 L356,135 L355,135 L355,133 L354,133 L354,130 L353,130 L353,128 L352,128 L352,126 L351,126 L351,125 L350,125 L350,124 L349,124 L349,123 L347,123 L347,122 L343,122 L343,123 L341,123 L341,124 L339,124 L339,125 L338,125 L338,127 L337,127 L337,134 L338,134 L338,135 L339,135 L339,136 L340,136 L340,137 L341,137 L341,138 L348,138 L348,137 L350,137 L350,136 L351,136 L351,135 L352,135 L352,138 L351,138 L351,139 L350,139 L350,140 L348,140 L348,141 L342,141 L342,140 L339,140 L339,139 L338,139 L338,138 L337,138 L337,137 L336,137 L336,136 L335,136 L335,134 L334,134 L334,127 L335,127 L335,125 L336,125 L336,124 L337,124 L337,123 L338,123 L338,122 L339,122 L339,121 L341,121 L341,120 z" fill="#fefcfc" stroke="none"/>
<path d="M516,120 L520,120 L520,121 L521,121 L521,125 L520,125 L520,126 L515,126 L515,121 L516,121 L516,120 z" fill="#f9fafb" stroke="none"/>
<path d="M110,121 L116,121 L116,122 L110,122 L110,121 z" fill="#d85c4e" stroke="none"/>
<path d="M116,121 L118,121 L118,126 L116,126 L116,121 z" fill="#f3cdca" stroke="none"/>
<path d="M118,121 L124,121 L124,122 L118,122 L118,121 z" fill="#d85c4e" stroke="none"/>
<path d="M177,124 L193,124 L193,125 L177,125 L177,124 z" fill="#f2baae" stroke="none"/>
<path d="M177,125 L193,125 L193,127 L192,127 L192,128 L180,128 L180,131 L181,131 L181,132 L192,132 L192,141 L189,141 L189,142 L181,142 L181,141 L178,141 L178,136 L181,136 L181,139 L183,139 L183,140 L187,140 L187,139 L189,139 L189,134 L178,134 L178,131 L177,131 L177,125 z" fill="#e5532d" stroke="none"/>
<path d="M514,125 L515,125 L515,126 L518,126 L518,127 L514,127 L514,125 z" fill="#d7dce2" stroke="none"/>
<path d="M531,125 L532,125 L532,132 L531,132 L531,134 L530,134 L530,135 L528,135 L528,136 L526,136 L526,137 L517,137 L517,138 L516,138 L516,143 L515,143 L515,146 L508,146 L508,144 L509,144 L509,143 L513,143 L513,142 L514,142 L514,138 L515,138 L515,135 L522,135 L522,134 L524,134 L524,133 L526,133 L526,132 L528,132 L528,131 L529,131 L529,129 L530,129 L530,128 L531,128 L531,125 z" fill="#1c3866" stroke="none"/>
<path d="M32,126 L33,126 L33,131 L32,131 L32,126 z" fill="#f4d0ca" stroke="none"/>
<path d="M431,126 L436,126 L436,127 L431,127 L431,126 z" fill="#4194c6" stroke="none"/>
<path d="M439,126 L443,126 L443,127 L445,127 L445,128 L446,128 L446,130 L447,130 L447,142 L443,142 L443,132 L442,132 L442,130 L437,130 L437,131 L436,131 L436,142 L431,142 L431,127 L436,127 L436,128 L438,128 L438,127 L439,127 L439,126 z" fill="#0475b5" stroke="none"/>
<path d="M422,127 L423,127 L423,142 L422,142 L422,127 z" fill="#509dcb" stroke="none"/>
<path d="M423,127 L427,127 L427,142 L423,142 L423,127 z" fill="#0274b5" stroke="none"/>
<path d="M427,127 L428,127 L428,142 L427,142 L427,127 z" fill="#3e92c5" stroke="none"/>
<path d="M430,127 L431,127 L431,142 L430,142 L430,127 z" fill="#cee2f0" stroke="none"/>
<path d="M96,129 L99,129 L99,132 L100,132 L100,133 L101,133 L101,134 L102,134 L102,135 L103,135 L103,136 L104,136 L104,137 L105,137 L105,139 L106,139 L106,144 L105,144 L105,145 L104,145 L104,146 L103,146 L103,144 L104,144 L104,140 L103,140 L103,138 L101,138 L101,137 L100,137 L100,136 L98,136 L98,135 L97,135 L97,133 L96,133 L96,129 z" fill="#fefdfd" stroke="none"/>
<path d="M357,129 L358,129 L358,130 L360,130 L360,131 L362,131 L362,132 L364,132 L364,133 L366,133 L366,134 L367,134 L367,135 L366,135 L366,137 L360,137 L360,135 L359,135 L359,133 L358,133 L358,131 L357,131 L357,129 z" fill="#cf0a02" stroke="none"/>
<path d="M181,131 L192,131 L192,132 L181,132 L181,131 z" fill="#eb7a5d" stroke="none"/>
<path d="M513,131 L520,131 L520,132 L513,132 L513,131 z" fill="#5b7093" stroke="none"/>
<path d="M447,132 L448,132 L448,142 L447,142 L447,132 z" fill="#5fa1cd" stroke="none"/>
<path d="M436,133 L437,133 L437,143 L436,143 L436,133 z" fill="#97c9e2" stroke="none"/>
<path d="M442,133 L443,133 L443,142 L442,142 L442,133 z" fill="#3e92c5" stroke="none"/>
<path d="M178,134 L189,134 L189,135 L178,135 L178,134 z" fill="#eba298" stroke="none"/>
<path d="M515,134 L520,134 L520,135 L515,135 L515,134 z" fill="#7284a6" stroke="none"/>
<path d="M92,135 L98,135 L98,136 L92,136 L92,135 z" fill="#f8e3e3" stroke="none"/>
<path d="M88,137 L90,137 L90,138 L89,138 L89,139 L88,139 L88,145 L89,145 L89,146 L90,146 L90,147 L92,147 L92,148 L99,148 L99,149 L91,149 L91,148 L88,148 L88,147 L87,147 L87,146 L86,146 L86,145 L85,145 L85,140 L86,140 L86,139 L87,139 L87,138 L88,138 L88,137 z" fill="#fefdfd" stroke="none"/>
<path d="M92,137 L100,137 L100,138 L101,138 L101,139 L102,139 L102,140 L103,140 L103,144 L102,144 L102,146 L100,146 L100,147 L92,147 L92,146 L91,146 L91,145 L90,145 L90,144 L89,144 L89,139 L90,139 L90,138 L92,138 L92,137 z" fill="#d03f2d" stroke="none"/>
<path d="M517,137 L523,137 L523,138 L517,138 L517,137 z" fill="#7284a6" stroke="none"/>
<path d="M503,140 L510,140 L510,141 L503,141 L503,140 z" fill="#8897b2" stroke="none"/>
<path d="M360,141 L365,141 L365,142 L360,142 L360,141 z" fill="#d73b36" stroke="none"/>
<path d="M500,141 L501,141 L501,142 L505,142 L505,143 L500,143 L500,141 z" fill="#d5dae1" stroke="none"/>
<path d="M431,142 L436,142 L436,143 L431,143 L431,142 z" fill="#4194c6" stroke="none"/>
<path d="M508,146 L515,146 L515,147 L508,147 L508,146 z" fill="#c1c9cf" stroke="none"/>
<path d="M419,148 L451,148 L451,149 L419,149 L419,148 z" fill="#bbd8eb" stroke="none"/>
<path d="M505,148 L517,148 L517,149 L505,149 L505,148 z" fill="#e2e6ea" stroke="none"/>
<path d="M93,149 L98,149 L98,150 L93,150 L93,149 z" fill="#e79991" stroke="none"/>
<path d="M240,156 L241,156 L241,157 L242,157 L242,158 L296,158 L296,157 L297,157 L297,156 L298,156 L298,158 L297,158 L297,159 L294,159 L294,160 L244,160 L244,159 L241,159 L241,158 L240,158 L240,156 z" fill="#42b1d3" stroke="none"/>
<path d="M77,159 L127,159 L127,160 L77,160 L77,159 z" fill="#b84739" stroke="none"/>
<path d="M160,159 L210,159 L210,160 L160,160 L160,159 z" fill="#c75233" stroke="none"/>
<path d="M327,159 L377,159 L377,160 L327,160 L327,159 z" fill="#b71e16" stroke="none"/>
<path d="M410,159 L460,159 L460,160 L410,160 L410,159 z" fill="#1871a3" stroke="none"/>
<path d="M493,159 L532,159 L532,160 L493,160 L493,159 z" fill="#2a4064" stroke="none"/>
</svg>