<svg viewBox="0 0 260 260" xmlns="http://www.w3.org/2000/svg">
<path d="M10,10 L250,10 L250,250 L10,250 L10,10 z" fill="#fefefe" stroke="none"/>
<path d="M121,28 L139,28 L139,29 L149,29 L149,30 L155,30 L155,31 L160,31 L160,32 L164,32 L164,33 L167,33 L167,34 L170,34 L170,35 L173,35 L173,36 L175,36 L175,37 L178,37 L178,38 L180,38 L180,39 L182,39 L182,40 L184,40 L184,41 L186,41 L186,42 L187,42 L187,43 L189,43 L189,44 L191,44 L191,45 L192,45 L192,46 L194,46 L194,47 L195,47 L195,48 L196,48 L196,49 L198,49 L198,50 L199,50 L199,51 L200,51 L200,52 L201,52 L201,53 L202,53 L202,54 L204,54 L204,55 L205,55 L205,56 L206,56 L206,57 L207,57 L207,58 L208,58 L208,59 L209,59 L209,61 L210,61 L210,62 L211,62 L211,63 L212,63 L212,64 L213,64 L213,65 L214,65 L214,66 L215,66 L215,68 L216,68 L216,69 L217,69 L217,70 L218,70 L218,72 L219,72 L219,73 L220,73 L220,75 L221,75 L221,76 L222,76 L222,78 L223,78 L223,79 L224,79 L224,81 L225,81 L225,83 L226,83 L226,85 L227,85 L227,87 L228,87 L228,89 L229,89 L229,91 L230,91 L230,93 L231,93 L231,95 L232,95 L232,97 L233,97 L233,100 L234,100 L234,103 L235,103 L235,105 L236,105 L236,108 L237,108 L237,111 L238,111 L238,114 L239,114 L239,118 L240,118 L240,122 L241,122 L241,126 L242,126 L242,130 L243,130 L243,135 L244,135 L244,141 L245,141 L245,147 L246,147 L246,155 L247,155 L247,160 L248,160 L248,190 L247,190 L247,193 L246,193 L246,195 L245,195 L245,197 L244,197 L244,198 L243,198 L243,199 L242,199 L242,200 L241,200 L241,202 L240,202 L240,203 L238,203 L238,204 L237,204 L237,205 L236,205 L236,206 L235,206 L235,207 L234,207 L234,208 L232,208 L232,209 L231,209 L231,210 L229,210 L229,211 L227,211 L227,212 L226,212 L226,213 L224,213 L224,214 L222,214 L222,215 L219,215 L219,216 L217,216 L217,217 L215,217 L215,218 L212,218 L212,219 L210,219 L210,220 L207,220 L207,221 L204,221 L204,222 L200,222 L200,223 L197,223 L197,224 L193,224 L193,225 L189,225 L189,226 L184,226 L184,227 L179,227 L179,228 L173,228 L173,229 L166,229 L166,230 L157,230 L157,231 L142,231 L142,232 L118,232 L118,231 L103,231 L103,230 L94,230 L94,229 L87,229 L87,228 L81,228 L81,227 L76,227 L76,226 L71,226 L71,225 L67,225 L67,224 L63,224 L63,223 L60,223 L60,222 L56,222 L56,221 L53,221 L53,220 L51,220 L51,219 L48,219 L48,218 L45,218 L45,217 L43,217 L43,216 L41,216 L41,215 L38,215 L38,214 L36,214 L36,213 L35,213 L35,212 L33,212 L33,211 L31,211 L31,210 L29,210 L29,209 L28,209 L28,208 L26,208 L26,207 L25,207 L25,206 L24,206 L24,205 L23,205 L23,204 L21,204 L21,203 L20,203 L20,202 L19,202 L19,200 L18,200 L18,199 L17,199 L17,198 L16,198 L16,197 L15,197 L15,195 L14,195 L14,193 L13,193 L13,190 L12,190 L12,160 L13,160 L13,155 L14,155 L14,147 L15,147 L15,141 L16,141 L16,135 L17,135 L17,130 L18,130 L18,126 L19,126 L19,122 L20,122 L20,118 L21,118 L21,114 L22,114 L22,111 L23,111 L23,108 L24,108 L24,105 L25,105 L25,103 L26,103 L26,100 L27,100 L27,97 L28,97 L28,95 L29,95 L29,93 L30,93 L30,91 L31,91 L31,89 L32,89 L32,87 L33,87 L33,85 L34,85 L34,83 L35,83 L35,81 L36,81 L36,79 L37,79 L37,78 L38,78 L38,76 L39,76 L39,75 L40,75 L40,73 L41,73 L41,72 L42,72 L42,70 L43,70 L43,69 L44,69 L44,68 L45,68 L45,66 L46,66 L46,65 L47,65 L47,64 L48,64 L48,63 L49,63 L49,62 L50,62 L50,61 L51,61 L51,59 L52,59 L52,58 L53,58 L53,57 L54,57 L54,56 L55,56 L55,55 L56,55 L56,54 L58,54 L58,53 L59,53 L59,52 L60,52 L60,51 L61,51 L61,50 L62,50 L62,49 L64,49 L64,48 L65,48 L65,47 L66,47 L66,46 L68,46 L68,45 L69,45 L69,44 L71,44 L71,43 L73,43 L73,42 L74,42 L74,41 L76,41 L76,40 L78,40 L78,39 L80,39 L80,38 L82,38 L82,37 L85,37 L85,36 L87,36 L87,35 L90,35 L90,34 L93,34 L93,33 L96,33 L96,32 L100,32 L100,31 L105,31 L105,30 L111,30 L111,29 L121,29 L121,28 z" fill="#fbc21b" stroke="none"/>
<path d="M82,95 L90,95 L90,96 L95,96 L95,97 L98,97 L98,98 L100,98 L100,99 L102,99 L102,100 L104,100 L104,101 L105,101 L105,102 L107,102 L107,103 L108,103 L108,104 L109,104 L109,105 L110,105 L110,106 L111,106 L111,108 L112,108 L112,109 L113,109 L113,114 L112,114 L112,115 L111,115 L111,116 L106,116 L106,115 L105,115 L105,114 L104,114 L104,113 L103,113 L103,112 L102,112 L102,111 L101,111 L101,110 L100,110 L100,109 L99,109 L99,108 L97,108 L97,107 L95,107 L95,106 L93,106 L93,105 L79,105 L79,106 L77,106 L77,107 L75,107 L75,108 L73,108 L73,109 L72,109 L72,110 L71,110 L71,111 L70,111 L70,112 L69,112 L69,113 L68,113 L68,114 L67,114 L67,115 L66,115 L66,116 L61,116 L61,115 L60,115 L60,114 L59,114 L59,109 L60,109 L60,108 L61,108 L61,106 L62,106 L62,105 L63,105 L63,104 L64,104 L64,103 L65,103 L65,102 L67,102 L67,101 L68,101 L68,100 L70,100 L70,99 L72,99 L72,98 L74,98 L74,97 L77,97 L77,96 L82,96 L82,95 z" fill="#2f2f2e" stroke="none"/>
<path d="M169,95 L179,95 L179,96 L183,96 L183,97 L186,97 L186,98 L189,98 L189,99 L190,99 L190,100 L192,100 L192,101 L193,101 L193,102 L195,102 L195,103 L196,103 L196,104 L197,104 L197,105 L198,105 L198,106 L199,106 L199,108 L200,108 L200,109 L201,109 L201,114 L200,114 L200,115 L199,115 L199,116 L194,116 L194,115 L193,115 L193,114 L192,114 L192,113 L191,113 L191,111 L190,111 L190,110 L188,110 L188,109 L187,109 L187,108 L185,108 L185,107 L183,107 L183,106 L181,106 L181,105 L167,105 L167,106 L165,106 L165,107 L163,107 L163,108 L161,108 L161,109 L160,109 L160,110 L159,110 L159,111 L158,111 L158,112 L157,112 L157,113 L156,113 L156,114 L155,114 L155,115 L154,115 L154,116 L149,116 L149,115 L148,115 L148,114 L147,114 L147,109 L148,109 L148,108 L149,108 L149,106 L150,106 L150,105 L151,105 L151,104 L152,104 L152,103 L154,103 L154,102 L155,102 L155,101 L156,101 L156,100 L158,100 L158,99 L160,99 L160,98 L162,98 L162,97 L165,97 L165,96 L169,96 L169,95 z" fill="#2f2f2e" stroke="none"/>
<path d="M62,142 L67,142 L67,143 L68,143 L68,144 L69,144 L69,145 L70,145 L70,148 L71,148 L71,150 L72,150 L72,152 L73,152 L73,154 L74,154 L74,155 L75,155 L75,157 L76,157 L76,158 L77,158 L77,160 L78,160 L78,161 L79,161 L79,162 L80,162 L80,163 L81,163 L81,164 L82,164 L82,165 L83,165 L83,166 L84,166 L84,167 L85,167 L85,168 L86,168 L86,169 L87,169 L87,170 L89,170 L89,171 L90,171 L90,172 L91,172 L91,173 L93,173 L93,174 L95,174 L95,175 L96,175 L96,176 L99,176 L99,177 L101,177 L101,178 L103,178 L103,179 L106,179 L106,180 L109,180 L109,181 L112,181 L112,182 L117,182 L117,183 L143,183 L143,182 L148,182 L148,181 L151,181 L151,180 L154,180 L154,179 L157,179 L157,178 L159,178 L159,177 L162,177 L162,176 L164,176 L164,175 L165,175 L165,174 L167,174 L167,173 L169,173 L169,172 L170,172 L170,171 L171,171 L171,170 L173,170 L173,169 L174,169 L174,168 L175,168 L175,167 L176,167 L176,166 L177,166 L177,165 L178,165 L178,164 L179,164 L179,163 L180,163 L180,162 L181,162 L181,161 L182,161 L182,160 L183,160 L183,158 L184,158 L184,157 L185,157 L185,155 L186,155 L186,154 L187,154 L187,152 L188,152 L188,150 L189,150 L189,148 L190,148 L190,145 L191,145 L191,144 L192,144 L192,143 L193,143 L193,142 L198,142 L198,143 L199,143 L199,144 L200,144 L200,146 L201,146 L201,148 L200,148 L200,151 L199,151 L199,153 L198,153 L198,155 L197,155 L197,157 L196,157 L196,159 L195,159 L195,161 L194,161 L194,162 L193,162 L193,164 L192,164 L192,165 L191,165 L191,166 L190,166 L190,168 L189,168 L189,169 L188,169 L188,170 L187,170 L187,171 L186,171 L186,172 L185,172 L185,173 L184,173 L184,174 L183,174 L183,175 L182,175 L182,176 L181,176 L181,177 L179,177 L179,178 L178,178 L178,179 L177,179 L177,180 L175,180 L175,181 L174,181 L174,182 L172,182 L172,183 L171,183 L171,184 L169,184 L169,185 L167,185 L167,186 L165,186 L165,187 L162,187 L162,188 L160,188 L160,189 L157,189 L157,190 L154,190 L154,191 L150,191 L150,192 L146,192 L146,193 L139,193 L139,194 L121,194 L121,193 L114,193 L114,192 L109,192 L109,191 L106,191 L106,190 L103,190 L103,189 L100,189 L100,188 L98,188 L98,187 L95,187 L95,186 L93,186 L93,185 L91,185 L91,184 L89,184 L89,183 L88,183 L88,182 L86,182 L86,181 L85,181 L85,180 L83,180 L83,179 L82,179 L82,178 L81,178 L81,177 L79,177 L79,176 L78,176 L78,175 L77,175 L77,174 L76,174 L76,173 L75,173 L75,172 L74,172 L74,171 L73,171 L73,170 L72,170 L72,169 L71,169 L71,168 L70,168 L70,166 L69,166 L69,165 L68,165 L68,164 L67,164 L67,162 L66,162 L66,161 L65,161 L65,159 L64,159 L64,157 L63,157 L63,155 L62,155 L62,153 L61,153 L61,151 L60,151 L60,148 L59,148 L59,146 L60,146 L60,144 L61,144 L61,143 L62,143 L62,142 z" fill="#2f2f2e" stroke="none"/>
<path d="M201,149 L202,149 L202,150 L204,150 L204,151 L206,151 L206,152 L208,152 L208,153 L209,153 L209,154 L211,154 L211,155 L212,155 L212,156 L213,156 L213,157 L214,157 L214,158 L215,158 L215,159 L216,159 L216,160 L217,160 L217,162 L218,162 L218,163 L219,163 L219,164 L220,164 L220,166 L221,166 L221,168 L222,168 L222,170 L223,170 L223,172 L224,172 L224,176 L225,176 L225,187 L224,187 L224,190 L223,190 L223,192 L222,192 L222,194 L221,194 L221,196 L220,196 L220,197 L219,197 L219,198 L218,198 L218,199 L217,199 L217,200 L216,200 L216,201 L214,201 L214,202 L213,202 L213,203 L211,203 L211,204 L208,204 L208,205 L201,205 L201,204 L197,204 L197,203 L195,203 L195,202 L193,202 L193,201 L192,201 L192,200 L190,200 L190,199 L189,199 L189,198 L188,198 L188,197 L186,197 L186,196 L185,196 L185,195 L184,195 L184,194 L183,194 L183,193 L181,193 L181,192 L180,192 L180,191 L178,191 L178,190 L177,190 L177,189 L175,189 L175,188 L173,188 L173,187 L170,187 L170,186 L168,186 L168,185 L170,185 L170,184 L172,184 L172,183 L174,183 L174,182 L175,182 L175,181 L177,181 L177,180 L178,180 L178,179 L179,179 L179,178 L181,178 L181,177 L182,177 L182,176 L183,176 L183,175 L184,175 L184,174 L185,174 L185,173 L186,173 L186,172 L187,172 L187,171 L188,171 L188,170 L189,170 L189,169 L190,169 L190,168 L191,168 L191,166 L192,166 L192,165 L193,165 L193,164 L194,164 L194,162 L195,162 L195,161 L196,161 L196,159 L197,159 L197,157 L198,157 L198,155 L199,155 L199,153 L200,153 L200,150 L201,150 L201,149 z" fill="#d6598a" stroke="none"/>
<path d="M225,178 L226,178 L226,185 L225,185 L225,178 z" fill="#ee9a45" stroke="none"/>
<path d="M123,194 L128,194 L128,195 L123,195 L123,194 z" fill="#bf9621" stroke="none"/>
<path d="M132,194 L137,194 L137,195 L132,195 L132,194 z" fill="#bf9621" stroke="none"/>
</svg>