<svg viewBox="0 0 260 260" xmlns="http://www.w3.org/2000/svg">
<path d="M10,10 L11,10 L12,10 L13,10 L14,10 L15,10 L16,10 L17,10 L18,10 L19,10 L20,10 L21,10 L22,10 L23,10 L24,10 L25,10 L26,10 L27,10 L28,10 L29,10 L30,10 L31,10 L32,10 L33,10 L34,10 L35,10 L36,10 L37,10 L38,10 L39,10 L40,10 L41,10 L42,10 L43,10 L44,10 L45,10 L46,10 L47,10 L48,10 L49,10 L50,10 L51,10 L52,10 L53,10 L54,10 L55,10 L56,10 L57,10 L58,10 L59,10 L60,10 L61,10 L62,10 L63,10 L64,10 L65,10 L66,10 L67,10 L68,10 L69,10 L70,10 L71,10 L72,10 L73,10 L74,10 L75,10 L76,10 L77,10 L78,10 L79,10 L80,10 L81,10 L82,10 L83,10 L84,10 L85,10 L86,10 L87,10 L88,10 L89,10 L90,10 L91,10 L92,10 L93,10 L94,10 L95,10 L96,10 L97,10 L98,10 L99,10 L100,10 L101,10 L102,10 L103,10 L104,10 L105,10 L106,10 L107,10 L108,10 L109,10 L110,10 L111,10 L112,10 L113,10 L114,10 L115,10 L116,10 L117,10 L118,10 L119,10 L120,10 L121,10 L122,10 L123,10 L124,10 L125,10 L126,10 L127,10 L128,10 L129,10 L130,10 L131,10 L132,10 L133,10 L134,10 L135,10 L136,10 L137,10 L138,10 L139,10 L140,10 L141,10 L142,10 L143,10 L144,10 L145,10 L146,10 L147,10 L148,10 L149,10 L150,10 L151,10 L152,10 L153,10 L154,10 L155,10 L156,10 L157,10 L158,10 L159,10 L160,10 L161,10 L162,10 L163,10 L164,10 L165,10 L166,10 L167,10 L168,10 L169,10 L170,10 L171,10 L172,10 L173,10 L174,10 L175,10 L176,10 L177,10 L178,10 L179,10 L180,10 L181,10 L182,10 L183,10 L184,10 L185,10 L186,10 L187,10 L188,10 L189,10 L190,10 L191,10 L192,10 L193,10 L194,10 L195,10 L196,10 L197,10 L198,10 L199,10 L200,10 L201,10 L202,10 L203,10 L204,10 L205,10 L206,10 L207,10 L208,10 L209,10 L210,10 L211,10 L212,10 L213,10 L214,10 L215,10 L216,10 L217,10 L218,10 L219,10 L220,10 L221,10 L222,10 L223,10 L224,10 L225,10 L226,10 L227,10 L228,10 L229,10 L230,10 L231,10 L232,10 L233,10 L234,10 L235,10 L236,10 L237,10 L238,10 L239,10 L240,10 L241,10 L242,10 L243,10 L244,10 L245,10 L246,10 L247,10 L248,10 L249,10 L250,10 L250,11 L250,12 L250,13 L250,14 L250,15 L250,16 L250,17 L250,18 L250,19 L250,20 L250,21 L250,22 L250,23 L250,24 L250,25 L250,26 L250,27 L250,28 L250,29 L250,30 L250,31 L250,32 L250,33 L250,34 L250,35 L250,36 L250,37 L250,38 L250,39 L250,40 L250,41 L250,42 L250,43 L250,44 L250,45 L250,46 L250,47 L250,48 L250,49 L250,50 L250,51 L250,52 L250,53 L250,54 L250,55 L250,56 L250,57 L250,58 L250,59 L250,60 L250,61 L250,62 L250,63 L250,64 L250,65 L250,66 L250,67 L250,68 L250,69 L250,70 L250,71 L250,72 L250,73 L250,74 L250,75 L250,76 L250,77 L250,78 L250,79 L250,80 L250,81 L250,82 L250,83 L250,84 L250,85 L250,86 L250,87 L250,88 L250,89 L250,90 L250,91 L250,92 L250,93 L250,94 L250,95 L250,96 L250,97 L250,98 L250,99 L250,100 L250,101 L250,102 L250,103 L250,104 L250,105 L250,106 L250,107 L250,108 L250,109 L250,110 L250,111 L250,112 L250,113 L250,114 L250,115 L250,116 L250,117 L250,118 L250,119 L250,120 L250,121 L250,122 L250,123 L250,124 L250,125 L250,126 L250,127 L250,128 L250,129 L250,130 L250,131 L250,132 L250,133 L250,134 L250,135 L250,136 L250,137 L250,138 L250,139 L250,140 L250,141 L250,142 L250,143 L250,144 L250,145 L250,146 L250,147 L250,148 L250,149 L250,150 L250,151 L250,152 L250,153 L250,154 L250,155 L250,156 L250,157 L250,158 L250,159 L250,160 L250,161 L250,162 L250,163 L250,164 L250,165 L250,166 L250,167 L250,168 L250,169 L250,170 L250,171 L250,172 L250,173 L250,174 L250,175 L250,176 L250,177 L250,178 L250,179 L250,180 L250,181 L250,182 L250,183 L250,184 L250,185 L250,186 L250,187 L250,188 L250,189 L250,190 L250,191 L250,192 L250,193 L250,194 L250,195 L250,196 L250,197 L250,198 L250,199 L250,200 L250,201 L250,202 L250,203 L250,204 L250,205 L250,206 L250,207 L250,208 L250,209 L250,210 L250,211 L250,212 L250,213 L250,214 L250,215 L250,216 L250,217 L250,218 L250,219 L250,220 L250,221 L250,222 L250,223 L250,224 L250,225 L250,226 L250,227 L250,228 L250,229 L250,230 L250,231 L250,232 L250,233 L250,234 L250,235 L250,236 L250,237 L250,238 L250,239 L250,240 L250,241 L250,242 L250,243 L250,244 L250,245 L250,246 L250,247 L250,248 L250,249 L250,250 L249,250 L248,250 L247,250 L246,250 L245,250 L244,250 L243,250 L242,250 L241,250 L240,250 L239,250 L238,250 L237,250 L236,250 L235,250 L234,250 L233,250 L232,250 L231,250 L230,250 L229,250 L228,250 L227,250 L226,250 L225,250 L224,250 L223,250 L222,250 L221,250 L220,250 L219,250 L218,250 L217,250 L216,250 L215,250 L214,250 L213,250 L212,250 L211,250 L210,250 L209,250 L208,250 L207,250 L206,250 L205,250 L204,250 L203,250 L202,250 L201,250 L200,250 L199,250 L198,250 L197,250 L196,250 L195,250 L194,250 L193,250 L192,250 L191,250 L190,250 L189,250 L188,250 L187,250 L186,250 L185,250 L184,250 L183,250 L182,250 L181,250 L180,250 L179,250 L178,250 L177,250 L176,250 L175,250 L174,250 L173,250 L172,250 L171,250 L170,250 L169,250 L168,250 L167,250 L166,250 L165,250 L164,250 L163,250 L162,250 L161,250 L160,250 L159,250 L158,250 L157,250 L156,250 L155,250 L154,250 L153,250 L152,250 L151,250 L150,250 L149,250 L148,250 L147,250 L146,250 L145,250 L144,250 L143,250 L142,250 L141,250 L140,250 L139,250 L138,250 L137,250 L136,250 L135,250 L134,250 L133,250 L132,250 L131,250 L130,250 L129,250 L128,250 L127,250 L126,250 L125,250 L124,250 L123,250 L122,250 L121,250 L120,250 L119,250 L118,250 L117,250 L116,250 L115,250 L114,250 L113,250 L112,250 L111,250 L110,250 L109,250 L108,250 L107,250 L106,250 L105,250 L104,250 L103,250 L102,250 L101,250 L100,250 L99,250 L98,250 L97,250 L96,250 L95,250 L94,250 L93,250 L92,250 L91,250 L90,250 L89,250 L88,250 L87,250 L86,250 L85,250 L84,250 L83,250 L82,250 L81,250 L80,250 L79,250 L78,250 L77,250 L76,250 L75,250 L74,250 L73,250 L72,250 L71,250 L70,250 L69,250 L68,250 L67,250 L66,250 L65,250 L64,250 L63,250 L62,250 L61,250 L60,250 L59,250 L58,250 L57,250 L56,250 L55,250 L54,250 L53,250 L52,250 L51,250 L50,250 L49,250 L48,250 L47,250 L46,250 L45,250 L44,250 L43,250 L42,250 L41,250 L40,250 L39,250 L38,250 L37,250 L36,250 L35,250 L34,250 L33,250 L32,250 L31,250 L30,250 L29,250 L28,250 L27,250 L26,250 L25,250 L24,250 L23,250 L22,250 L21,250 L20,250 L19,250 L18,250 L17,250 L16,250 L15,250 L14,250 L13,250 L12,250 L11,250 L10,250 L10,249 L10,248 L10,247 L10,246 L10,245 L10,244 L10,243 L10,242 L10,241 L10,240 L10,239 L10,238 L10,237 L10,236 L10,235 L10,234 L10,233 L10,232 L10,231 L10,230 L10,229 L10,228 L10,227 L10,226 L10,225 L10,224 L10,223 L10,222 L10,221 L10,220 L10,219 L10,218 L10,217 L10,216 L10,215 L10,214 L10,213 L10,212 L10,211 L10,210 L10,209 L10,208 L10,207 L10,206 L10,205 L10,204 L10,203 L10,202 L10,201 L10,200 L10,199 L10,198 L10,197 L10,196 L10,195 L10,194 L10,193 L10,192 L10,191 L10,190 L10,189 L10,188 L10,187 L10,186 L10,185 L10,184 L10,183 L10,182 L10,181 L10,180 L10,179 L10,178 L10,177 L10,176 L10,175 L10,174 L10,173 L10,172 L10,171 L10,170 L10,169 L10,168 L10,167 L10,166 L10,165 L10,164 L10,163 L10,162 L10,161 L10,160 L10,159 L10,158 L10,157 L10,156 L10,155 L10,154 L10,153 L10,152 L10,151 L10,150 L10,149 L10,148 L10,147 L10,146 L10,145 L10,144 L10,143 L10,142 L10,141 L10,140 L10,139 L10,138 L10,137 L10,136 L10,135 L10,134 L10,133 L10,132 L10,131 L10,130 L10,129 L10,128 L10,127 L10,126 L10,125 L10,124 L10,123 L10,122 L10,121 L10,120 L10,119 L10,118 L10,117 L10,116 L10,115 L10,114 L10,113 L10,112 L10,111 L10,110 L10,109 L10,108 L10,107 L10,106 L10,105 L10,104 L10,103 L10,102 L10,101 L10,100 L10,99 L10,98 L10,97 L10,96 L10,95 L10,94 L10,93 L10,92 L10,91 L10,90 L10,89 L10,88 L10,87 L10,86 L10,85 L10,84 L10,83 L10,82 L10,81 L10,80 L10,79 L10,78 L10,77 L10,76 L10,75 L10,74 L10,73 L10,72 L10,71 L10,70 L10,69 L10,68 L10,67 L10,66 L10,65 L10,64 L10,63 L10,62 L10,61 L10,60 L10,59 L10,58 L10,57 L10,56 L10,55 L10,54 L10,53 L10,52 L10,51 L10,50 L10,49 L10,48 L10,47 L10,46 L10,45 L10,44 L10,43 L10,42 L10,41 L10,40 L10,39 L10,38 L10,37 L10,36 L10,35 L10,34 L10,33 L10,32 L10,31 L10,30 L10,29 L10,28 L10,27 L10,26 L10,25 L10,24 L10,23 L10,22 L10,21 L10,20 L10,19 L10,18 L10,17 L10,16 L10,15 L10,14 L10,13 L10,12 L10,11 L10,10 z" fill="#fefefe" stroke="none"/>
<path d="M121,28 L122,28 L123,28 L124,28 L125,28 L126,28 L127,28 L128,28 L129,28 L130,28 L131,28 L132,28 L133,28 L134,28 L135,28 L136,28 L137,28 L138,28 L139,28 L139,29 L140,29 L141,29 L142,29 L143,29 L144,29 L145,29 L146,29 L147,29 L148,29 L149,29 L149,30 L150,30 L151,30 L152,30 L153,30 L154,30 L155,30 L155,31 L156,31 L157,31 L158,31 L159,31 L160,31 L160,32 L161,32 L162,32 L163,32 L164,32 L164,33 L165,33 L166,33 L167,33 L167,34 L168,34 L169,34 L170,34 L170,35 L171,35 L172,35 L173,35 L173,36 L174,36 L175,36 L175,37 L176,37 L177,37 L178,37 L178,38 L179,38 L180,38 L180,39 L181,39 L182,39 L182,40 L183,40 L184,40 L184,41 L185,41 L186,41 L186,42 L187,42 L187,43 L188,43 L189,43 L189,44 L190,44 L191,44 L191,45 L192,45 L192,46 L193,46 L194,46 L194,47 L195,47 L195,48 L196,48 L196,49 L197,49 L198,49 L198,50 L199,50 L199,51 L200,51 L200,52 L201,52 L201,53 L202,53 L202,54 L203,54 L204,54 L204,55 L205,55 L205,56 L206,56 L206,57 L207,57 L207,58 L208,58 L208,59 L209,59 L209,60 L209,61 L210,61 L210,62 L211,62 L211,63 L212,63 L212,64 L213,64 L213,65 L214,65 L214,66 L215,66 L215,67 L215,68 L216,68 L216,69 L217,69 L217,70 L218,70 L218,71 L218,72 L219,72 L219,73 L220,73 L220,74 L220,75 L221,75 L221,76 L222,76 L222,77 L222,78 L223,78 L223,79 L224,79 L224,80 L224,81 L225,81 L225,82 L225,83 L226,83 L226,84 L226,85 L227,85 L227,86 L227,87 L228,87 L228,88 L228,89 L229,89 L229,90 L229,91 L230,91 L230,92 L230,93 L231,93 L231,94 L231,95 L232,95 L232,96 L232,97 L233,97 L233,98 L233,99 L233,100 L234,100 L234,101 L234,102 L234,103 L235,103 L235,104 L235,105 L236,105 L236,106 L236,107 L236,108 L237,108 L237,109 L237,110 L237,111 L238,111 L238,112 L238,113 L238,114 L239,114 L239,115 L239,116 L239,117 L239,118 L240,118 L240,119 L240,120 L240,121 L240,122 L241,122 L241,123 L241,124 L241,125 L241,126 L242,126 L242,127 L242,128 L242,129 L242,130 L243,130 L243,131 L243,132 L243,133 L243,134 L243,135 L244,135 L244,136 L244,137 L244,138 L244,139 L244,140 L244,141 L245,141 L245,142 L245,143 L245,144 L245,145 L245,146 L245,147 L246,147 L246,148 L246,149 L246,150 L246,151 L246,152 L246,153 L246,154 L246,155 L247,155 L247,156 L247,157 L247,158 L247,159 L247,160 L248,160 L248,161 L248,162 L248,163 L248,164 L248,165 L248,166 L248,167 L248,168 L248,169 L248,170 L248,171 L248,172 L248,173 L248,174 L248,175 L248,176 L248,177 L248,178 L248,179 L248,180 L248,181 L248,182 L248,183 L248,184 L248,185 L248,186 L248,187 L248,188 L248,189 L248,190 L247,190 L247,191 L247,192 L247,193 L246,193 L246,194 L246,195 L245,195 L245,196 L245,197 L244,197 L244,198 L243,198 L243,199 L242,199 L242,200 L241,200 L241,201 L241,202 L240,202 L240,203 L239,203 L238,203 L238,204 L237,204 L237,205 L236,205 L236,206 L235,206 L235,207 L234,207 L234,208 L233,208 L232,208 L232,209 L231,209 L231,210 L230,210 L229,210 L229,211 L228,211 L227,211 L227,212 L226,212 L226,213 L225,213 L224,213 L224,214 L223,214 L222,214 L222,215 L221,215 L220,215 L219,215 L219,216 L218,216 L217,216 L217,217 L216,217 L215,217 L215,218 L214,218 L213,218 L212,218 L212,219 L211,219 L210,219 L210,220 L209,220 L208,220 L207,220 L207,221 L206,221 L205,221 L204,221 L204,222 L203,222 L202,222 L201,222 L200,222 L200,223 L199,223 L198,223 L197,223 L197,224 L196,224 L195,224 L194,224 L193,224 L193,225 L192,225 L191,225 L190,225 L189,225 L189,226 L188,226 L187,226 L186,226 L185,226 L184,226 L184,227 L183,227 L182,227 L181,227 L180,227 L179,227 L179,228 L178,228 L177,228 L176,228 L175,228 L174,228 L173,228 L173,229 L172,229 L171,229 L170,229 L169,229 L168,229 L167,229 L166,229 L166,230 L165,230 L164,230 L163,230 L162,230 L161,230 L160,230 L159,230 L158,230 L157,230 L157,231 L156,231 L155,231 L154,231 L153,231 L152,231 L151,231 L150,231 L149,231 L148,231 L147,231 L146,231 L145,231 L144,231 L143,231 L142,231 L142,232 L141,232 L140,232 L139,232 L138,232 L137,232 L136,232 L135,232 L134,232 L133,232 L132,232 L131,232 L130,232 L129,232 L128,232 L127,232 L126,232 L125,232 L124,232 L123,232 L122,232 L121,232 L120,232 L119,232 L118,232 L118,231 L117,231 L116,231 L115,231 L114,231 L113,231 L112,231 L111,231 L110,231 L109,231 L108,231 L107,231 L106,231 L105,231 L104,231 L103,231 L103,230 L102,230 L101,230 L100,230 L99,230 L98,230 L97,230 L96,230 L95,230 L94,230 L94,229 L93,229 L92,229 L91,229 L90,229 L89,229 L88,229 L87,229 L87,228 L86,228 L85,228 L84,228 L83,228 L82,228 L81,228 L81,227 L80,227 L79,227 L78,227 L77,227 L76,227 L76,226 L75,226 L74,226 L73,226 L72,226 L71,226 L71,225 L70,225 L69,225 L68,225 L67,225 L67,224 L66,224 L65,224 L64,224 L63,224 L63,223 L62,223 L61,223 L60,223 L60,222 L59,222 L58,222 L57,222 L56,222 L56,221 L55,221 L54,221 L53,221 L53,220 L52,220 L51,220 L51,219 L50,219 L49,219 L48,219 L48,218 L47,218 L46,218 L45,218 L45,217 L44,217 L43,217 L43,216 L42,216 L41,216 L41,215 L40,215 L39,215 L38,215 L38,214 L37,214 L36,214 L36,213 L35,213 L35,212 L34,212 L33,212 L33,211 L32,211 L31,211 L31,210 L30,210 L29,210 L29,209 L28,209 L28,208 L27,208 L26,208 L26,207 L25,207 L25,206 L24,206 L24,205 L23,205 L23,204 L22,204 L21,204 L21,203 L20,203 L20,202 L19,202 L19,201 L19,200 L18,200 L18,199 L17,199 L17,198 L16,198 L16,197 L15,197 L15,196 L15,195 L14,195 L14,194 L14,193 L13,193 L13,192 L13,191 L13,190 L12,190 L12,189 L12,188 L12,187 L12,186 L12,185 L12,184 L12,183 L12,182 L12,181 L12,180 L12,179 L12,178 L12,177 L12,176 L12,175 L12,174 L12,173 L12,172 L12,171 L12,170 L12,169 L12,168 L12,167 L12,166 L12,165 L12,164 L12,163 L12,162 L12,161 L12,160 L13,160 L13,159 L13,158 L13,157 L13,156 L13,155 L14,155 L14,154 L14,153 L14,152 L14,151 L14,150 L14,149 L14,148 L14,147 L15,147 L15,146 L15,145 L15,144 L15,143 L15,142 L15,141 L16,141 L16,140 L16,139 L16,138 L16,137 L16,136 L16,135 L17,135 L17,134 L17,133 L17,132 L17,131 L17,130 L18,130 L18,129 L18,128 L18,127 L18,126 L19,126 L19,125 L19,124 L19,123 L19,122 L20,122 L20,121 L20,120 L20,119 L20,118 L21,118 L21,117 L21,116 L21,115 L21,114 L22,114 L22,113 L22,112 L22,111 L23,111 L23,110 L23,109 L23,108 L24,108 L24,107 L24,106 L24,105 L25,105 L25,104 L25,103 L26,103 L26,102 L26,101 L26,100 L27,100 L27,99 L27,98 L27,97 L28,97 L28,96 L28,95 L29,95 L29,94 L29,93 L30,93 L30,92 L30,91 L31,91 L31,90 L31,89 L32,89 L32,88 L32,87 L33,87 L33,86 L33,85 L34,85 L34,84 L34,83 L35,83 L35,82 L35,81 L36,81 L36,80 L36,79 L37,79 L37,78 L38,78 L38,77 L38,76 L39,76 L39,75 L40,75 L40,74 L40,73 L41,73 L41,72 L42,72 L42,71 L42,70 L43,70 L43,69 L44,69 L44,68 L45,68 L45,67 L45,66 L46,66 L46,65 L47,65 L47,64 L48,64 L48,63 L49,63 L49,62 L50,62 L50,61 L51,61 L51,60 L51,59 L52,59 L52,58 L53,58 L53,57 L54,57 L54,56 L55,56 L55,55 L56,55 L56,54 L57,54 L58,54 L58,53 L59,53 L59,52 L60,52 L60,51 L61,51 L61,50 L62,50 L62,49 L63,49 L64,49 L64,48 L65,48 L65,47 L66,47 L66,46 L67,46 L68,46 L68,45 L69,45 L69,44 L70,44 L71,44 L71,43 L72,43 L73,43 L73,42 L74,42 L74,41 L75,41 L76,41 L76,40 L77,40 L78,40 L78,39 L79,39 L80,39 L80,38 L81,38 L82,38 L82,37 L83,37 L84,37 L85,37 L85,36 L86,36 L87,36 L87,35 L88,35 L89,35 L90,35 L90,34 L91,34 L92,34 L93,34 L93,33 L94,33 L95,33 L96,33 L96,32 L97,32 L98,32 L99,32 L100,32 L100,31 L101,31 L102,31 L103,31 L104,31 L105,31 L105,30 L106,30 L107,30 L108,30 L109,30 L110,30 L111,30 L111,29 L112,29 L113,29 L114,29 L115,29 L116,29 L117,29 L118,29 L119,29 L120,29 L121,29 L121,28 z" fill="#fbc21b" stroke="none"/>
<path d="M82,95 L83,95 L84,95 L85,95 L86,95 L87,95 L88,95 L89,95 L90,95 L90,96 L91,96 L92,96 L93,96 L94,96 L95,96 L95,97 L96,97 L97,97 L98,97 L98,98 L99,98 L100,98 L100,99 L101,99 L102,99 L102,100 L103,100 L104,100 L104,101 L105,101 L105,102 L106,102 L107,102 L107,103 L108,103 L108,104 L109,104 L109,105 L110,105 L110,106 L111,106 L111,107 L111,108 L112,108 L112,109 L113,109 L113,110 L113,111 L113,112 L113,113 L113,114 L112,114 L112,115 L111,115 L111,116 L110,116 L109,116 L108,116 L107,116 L106,116 L106,115 L105,115 L105,114 L104,114 L104,113 L103,113 L103,112 L102,112 L102,111 L101,111 L101,110 L100,110 L100,109 L99,109 L99,108 L98,108 L97,108 L97,107 L96,107 L95,107 L95,106 L94,106 L93,106 L93,105 L92,105 L91,105 L90,105 L89,105 L88,105 L87,105 L86,105 L85,105 L84,105 L83,105 L82,105 L81,105 L80,105 L79,105 L79,106 L78,106 L77,106 L77,107 L76,107 L75,107 L75,108 L74,108 L73,108 L73,109 L72,109 L72,110 L71,110 L71,111 L70,111 L70,112 L69,112 L69,113 L68,113 L68,114 L67,114 L67,115 L66,115 L66,116 L65,116 L64,116 L63,116 L62,116 L61,116 L61,115 L60,115 L60,114 L59,114 L59,113 L59,112 L59,111 L59,110 L59,109 L60,109 L60,108 L61,108 L61,107 L61,106 L62,106 L62,105 L63,105 L63,104 L64,104 L64,103 L65,103 L65,102 L66,102 L67,102 L67,101 L68,101 L68,100 L69,100 L70,100 L70,99 L71,99 L72,99 L72,98 L73,98 L74,98 L74,97 L75,97 L76,97 L77,97 L77,96 L78,96 L79,96 L80,96 L81,96 L82,96 L82,95 z" fill="#2f2f2e" stroke="none"/>
<path d="M169,95 L170,95 L171,95 L172,95 L173,95 L174,95 L175,95 L176,95 L177,95 L178,95 L179,95 L179,96 L180,96 L181,96 L182,96 L183,96 L183,97 L184,97 L185,97 L186,97 L186,98 L187,98 L188,98 L189,98 L189,99 L190,99 L190,100 L191,100 L192,100 L192,101 L193,101 L193,102 L194,102 L195,102 L195,103 L196,103 L196,104 L197,104 L197,105 L198,105 L198,106 L199,106 L199,107 L199,108 L200,108 L200,109 L201,109 L201,110 L201,111 L201,112 L201,113 L201,114 L200,114 L200,115 L199,115 L199,116 L198,116 L197,116 L196,116 L195,116 L194,116 L194,115 L193,115 L193,114 L192,114 L192,113 L191,113 L191,112 L191,111 L190,111 L190,110 L189,110 L188,110 L188,109 L187,109 L187,108 L186,108 L185,108 L185,107 L184,107 L183,107 L183,106 L182,106 L181,106 L181,105 L180,105 L179,105 L178,105 L177,105 L176,105 L175,105 L174,105 L173,105 L172,105 L171,105 L170,105 L169,105 L168,105 L167,105 L167,106 L166,106 L165,106 L165,107 L164,107 L163,107 L163,108 L162,108 L161,108 L161,109 L160,109 L160,110 L159,110 L159,111 L158,111 L158,112 L157,112 L157,113 L156,113 L156,114 L155,114 L155,115 L154,115 L154,116 L153,116 L152,116 L151,116 L150,116 L149,116 L149,115 L148,115 L148,114 L147,114 L147,113 L147,112 L147,111 L147,110 L147,109 L148,109 L148,108 L149,108 L149,107 L149,106 L150,106 L150,105 L151,105 L151,104 L152,104 L152,103 L153,103 L154,103 L154,102 L155,102 L155,101 L156,101 L156,100 L157,100 L158,100 L158,99 L159,99 L160,99 L160,98 L161,98 L162,98 L162,97 L163,97 L164,97 L165,97 L165,96 L166,96 L167,96 L168,96 L169,96 L169,95 z" fill="#2f2f2e" stroke="none"/>
<path d="M62,142 L63,142 L64,142 L65,142 L66,142 L67,142 L67,143 L68,143 L68,144 L69,144 L69,145 L70,145 L70,146 L70,147 L70,148 L71,148 L71,149 L71,150 L72,150 L72,151 L72,152 L73,152 L73,153 L73,154 L74,154 L74,155 L75,155 L75,156 L75,157 L76,157 L76,158 L77,158 L77,159 L77,160 L78,160 L78,161 L79,161 L79,162 L80,162 L80,163 L81,163 L81,164 L82,164 L82,165 L83,165 L83,166 L84,166 L84,167 L85,167 L85,168 L86,168 L86,169 L87,169 L87,170 L88,170 L89,170 L89,171 L90,171 L90,172 L91,172 L91,173 L92,173 L93,173 L93,174 L94,174 L95,174 L95,175 L96,175 L96,176 L97,176 L98,176 L99,176 L99,177 L100,177 L101,177 L101,178 L102,178 L103,178 L103,179 L104,179 L105,179 L106,179 L106,180 L107,180 L108,180 L109,180 L109,181 L110,181 L111,181 L112,181 L112,182 L113,182 L114,182 L115,182 L116,182 L117,182 L117,183 L118,183 L119,183 L120,183 L121,183 L122,183 L123,183 L124,183 L125,183 L126,183 L127,183 L128,183 L129,183 L130,183 L131,183 L132,183 L133,183 L134,183 L135,183 L136,183 L137,183 L138,183 L139,183 L140,183 L141,183 L142,183 L143,183 L143,182 L144,182 L145,182 L146,182 L147,182 L148,182 L148,181 L149,181 L150,181 L151,181 L151,180 L152,180 L153,180 L154,180 L154,179 L155,179 L156,179 L157,179 L157,178 L158,178 L159,178 L159,177 L160,177 L161,177 L162,177 L162,176 L163,176 L164,176 L164,175 L165,175 L165,174 L166,174 L167,174 L167,173 L168,173 L169,173 L169,172 L170,172 L170,171 L171,171 L171,170 L172,170 L173,170 L173,169 L174,169 L174,168 L175,168 L175,167 L176,167 L176,166 L177,166 L177,165 L178,165 L178,164 L179,164 L179,163 L180,163 L180,162 L181,162 L181,161 L182,161 L182,160 L183,160 L183,159 L183,158 L184,158 L184,157 L185,157 L185,156 L185,155 L186,155 L186,154 L187,154 L187,153 L187,152 L188,152 L188,151 L188,150 L189,150 L189,149 L189,148 L190,148 L190,147 L190,146 L190,145 L191,145 L191,144 L192,144 L192,143 L193,143 L193,142 L194,142 L195,142 L196,142 L197,142 L198,142 L198,143 L199,143 L199,144 L200,144 L200,145 L200,146 L201,146 L201,147 L201,148 L200,148 L200,149 L200,150 L200,151 L199,151 L199,152 L199,153 L198,153 L198,154 L198,155 L197,155 L197,156 L197,157 L196,157 L196,158 L196,159 L195,159 L195,160 L195,161 L194,161 L194,162 L193,162 L193,163 L193,164 L192,164 L192,165 L191,165 L191,166 L190,166 L190,167 L190,168 L189,168 L189,169 L188,169 L188,170 L187,170 L187,171 L186,171 L186,172 L185,172 L185,173 L184,173 L184,174 L183,174 L183,175 L182,175 L182,176 L181,176 L181,177 L180,177 L179,177 L179,178 L178,178 L178,179 L177,179 L177,180 L176,180 L175,180 L175,181 L174,181 L174,182 L173,182 L172,182 L172,183 L171,183 L171,184 L170,184 L169,184 L169,185 L168,185 L167,185 L167,186 L166,186 L165,186 L165,187 L164,187 L163,187 L162,187 L162,188 L161,188 L160,188 L160,189 L159,189 L158,189 L157,189 L157,190 L156,190 L155,190 L154,190 L154,191 L153,191 L152,191 L151,191 L150,191 L150,192 L149,192 L148,192 L147,192 L146,192 L146,193 L145,193 L144,193 L143,193 L142,193 L141,193 L140,193 L139,193 L139,194 L138,194 L137,194 L136,194 L135,194 L134,194 L133,194 L132,194 L131,194 L130,194 L129,194 L128,194 L127,194 L126,194 L125,194 L124,194 L123,194 L122,194 L121,194 L121,193 L120,193 L119,193 L118,193 L117,193 L116,193 L115,193 L114,193 L114,192 L113,192 L112,192 L111,192 L110,192 L109,192 L109,191 L108,191 L107,191 L106,191 L106,190 L105,190 L104,190 L103,190 L103,189 L102,189 L101,189 L100,189 L100,188 L99,188 L98,188 L98,187 L97,187 L96,187 L95,187 L95,186 L94,186 L93,186 L93,185 L92,185 L91,185 L91,184 L90,184 L89,184 L89,183 L88,183 L88,182 L87,182 L86,182 L86,181 L85,181 L85,180 L84,180 L83,180 L83,179 L82,179 L82,178 L81,178 L81,177 L80,177 L79,177 L79,176 L78,176 L78,175 L77,175 L77,174 L76,174 L76,173 L75,173 L75,172 L74,172 L74,171 L73,171 L73,170 L72,170 L72,169 L71,169 L71,168 L70,168 L70,167 L70,166 L69,166 L69,165 L68,165 L68,164 L67,164 L67,163 L67,162 L66,162 L66,161 L65,161 L65,160 L65,159 L64,159 L64,158 L64,157 L63,157 L63,156 L63,155 L62,155 L62,154 L62,153 L61,153 L61,152 L61,151 L60,151 L60,150 L60,149 L60,148 L59,148 L59,147 L59,146 L60,146 L60,145 L60,144 L61,144 L61,143 L62,143 L62,142 z" fill="#2f2f2e" stroke="none"/>
<path d="M201,149 L202,149 L202,150 L203,150 L204,150 L204,151 L205,151 L206,151 L206,152 L207,152 L208,152 L208,153 L209,153 L209,154 L210,154 L211,154 L211,155 L212,155 L212,156 L213,156 L213,157 L214,157 L214,158 L215,158 L215,159 L216,159 L216,160 L217,160 L217,161 L217,162 L218,162 L218,163 L219,163 L219,164 L220,164 L220,165 L220,166 L221,166 L221,167 L221,168 L222,168 L222,169 L222,170 L223,170 L223,171 L223,172 L224,172 L224,173 L224,174 L224,175 L224,176 L225,176 L225,177 L225,178 L225,179 L225,180 L225,181 L225,182 L225,183 L225,184 L225,185 L225,186 L225,187 L224,187 L224,188 L224,189 L224,190 L223,190 L223,191 L223,192 L222,192 L222,193 L222,194 L221,194 L221,195 L221,196 L220,196 L220,197 L219,197 L219,198 L218,198 L218,199 L217,199 L217,200 L216,200 L216,201 L215,201 L214,201 L214,202 L213,202 L213,203 L212,203 L211,203 L211,204 L210,204 L209,204 L208,204 L208,205 L207,205 L206,205 L205,205 L204,205 L203,205 L202,205 L201,205 L201,204 L200,204 L199,204 L198,204 L197,204 L197,203 L196,203 L195,203 L195,202 L194,202 L193,202 L193,201 L192,201 L192,200 L191,200 L190,200 L190,199 L189,199 L189,198 L188,198 L188,197 L187,197 L186,197 L186,196 L185,196 L185,195 L184,195 L184,194 L183,194 L183,193 L182,193 L181,193 L181,192 L180,192 L180,191 L179,191 L178,191 L178,190 L177,190 L177,189 L176,189 L175,189 L175,188 L174,188 L173,188 L173,187 L172,187 L171,187 L170,187 L170,186 L169,186 L168,186 L168,185 L169,185 L170,185 L170,184 L171,184 L172,184 L172,183 L173,183 L174,183 L174,182 L175,182 L175,181 L176,181 L177,181 L177,180 L178,180 L178,179 L179,179 L179,178 L180,178 L181,178 L181,177 L182,177 L182,176 L183,176 L183,175 L184,175 L184,174 L185,174 L185,173 L186,173 L186,172 L187,172 L187,171 L188,171 L188,170 L189,170 L189,169 L190,169 L190,168 L191,168 L191,167 L191,166 L192,166 L192,165 L193,165 L193,164 L194,164 L194,163 L194,162 L195,162 L195,161 L196,161 L196,160 L196,159 L197,159 L197,158 L197,157 L198,157 L198,156 L198,155 L199,155 L199,154 L199,153 L200,153 L200,152 L200,151 L200,150 L201,150 L201,149 z" fill="#d6598a" stroke="none"/>
<path d="M225,178 L226,178 L226,179 L226,180 L226,181 L226,182 L226,183 L226,184 L226,185 L225,185 L225,184 L225,183 L225,182 L225,181 L225,180 L225,179 L225,178 z" fill="#ee9a45" stroke="none"/>
<path d="M123,194 L124,194 L125,194 L126,194 L127,194 L128,194 L128,195 L127,195 L126,195 L125,195 L124,195 L123,195 L123,194 z" fill="#bf9621" stroke="none"/>
<path d="M132,194 L133,194 L134,194 L135,194 L136,194 L137,194 L137,195 L136,195 L135,195 L134,195 L133,195 L132,195 L132,194 z" fill="#bf9621" stroke="none"/>
</svg>